<?xml version="1.0" encoding="utf-8"?>
<!-- Generator: Adobe Illustrator 24.3.0, SVG Export Plug-In . SVG Version: 6.00 Build 0)  -->
<svg version="1.1" id="Layer_1" xmlns="http://www.w3.org/2000/svg" xmlns:xlink="http://www.w3.org/1999/xlink" x="0px" y="0px"
	 viewBox="0 0 200 63" style="enable-background:new 0 0 200 63;" xml:space="preserve">
<style type="text/css">
	.st0{fill:#FFFFFF;}
	.st1{fill:#93278F;}
	.st2{fill:#93278F;stroke:#231F20;stroke-linecap:round;stroke-miterlimit:10;}
</style>
<path class="st0" d="M178.87,56.82c0,0.2,0.1,0.3,0.1,0.4s0.2,0.1,0.4,0.1c0.2,0,0.3,0,0.4-0.1c0.2-0.1,0.2-0.2,0.2-0.4v-2.2h-1.1
	V56.82z"/>
<path class="st1" d="M189.04,52.79h2.9v-0.11v-0.85v-0.66c0-0.73-0.4-1.24-1.1-1.66c-0.6-0.31-1.5-0.41-2.6-0.41
	c-1.1,0-2,0.1-2.6,0.41c-0.7,0.31-1.1,0.93-1.1,1.66v3.52h4.2v2.34c0,0.21-0.1,0.31-0.1,0.41c0,0.1-0.2,0.1-0.4,0.1
	c-0.2,0-0.3,0-0.4-0.1c-0.1-0.1-0.1-0.21-0.1-0.41v-1.87h-3.2v1.77c0,0.73,0.4,1.24,1.1,1.66c0.6,0.31,1.5,0.41,2.6,0.41
	c1.1,0,2-0.1,2.6-0.41c0.7-0.31,1.1-0.93,1.1-1.66v-3.48V53.4h-4.2v-2.34c0-0.21,0.1-0.31,0.1-0.41s0.2-0.1,0.4-0.1
	c0.2,0,0.3,0,0.4,0.1c0.1,0.1,0.1,0.21,0.1,0.41v1.72H189.04z"/>
<path class="st1" d="M183.17,56.69V51.1c0-0.7-0.4-1.3-1.1-1.6c-0.6-0.3-1.5-0.4-2.6-0.4c-1.1,0-2,0.1-2.6,0.4
	c-0.7,0.4-1.1,0.9-1.1,1.6V53h3.2v-2c0-0.2,0-0.3,0.1-0.4c0.1-0.1,0.2-0.1,0.4-0.1s0.4,0,0.4,0.1c0,0.1,0.1,0.2,0.1,0.4v2.3h-4.2V57
	c0,0.8,0.3,1.3,1.1,1.6c0.6,0.3,1.5,0.4,2.6,0.4c0.35,0,0.68-0.03,0.99-0.07c1.66-0.23,0.87,0.07,1.45,0.07h2.21c0,0,0-2.16,0-2.3
	h-0.66C183.36,56.7,183.27,56.7,183.17,56.69z M179.97,57.1c0,0.2,0,0.3-0.2,0.4c-0.1,0.1-0.2,0.1-0.4,0.1c-0.2,0-0.4,0-0.4-0.1
	s-0.1-0.2-0.1-0.4v-2.2h1.1V57.1z"/>
<rect x="171.76" y="46.95" class="st1" width="3.15" height="12.05"/>
<path class="st1" d="M169.87,57.2c-0.3-0.1-0.4-0.3-0.4-0.6v-5.9h1.7v-1.5h-1.7v-2h-3.2v2h-1.4v1.5h1.4v6c0,1,0.2,1.6,0.5,1.9
	c0.3,0.3,1.1,0.4,2.5,0.4h2c0,0,0-1.6,0-1.7h-0.6C170.37,57.3,170.07,57.3,169.87,57.2z"/>
<g id="a">
	<path class="st1" d="M165.27,58.72h-5.6l-1-5.3h-2.6l-1,5.3h-5.6l4.3-19.9h7.3C160.87,38.82,165.27,58.72,165.27,58.72z
		 M158.07,50.62l-0.8-6l-0.8,6H158.07L158.07,50.62z"/>
</g>
<g id="c">
	<path class="st1" d="M131.48,55.44c0,1.5-0.85,2.78-2.35,3.42c-1.28,0.64-2.99,0.86-5.56,0.86s-4.28-0.21-5.56-0.86
		c-1.5-0.64-2.35-1.92-2.35-3.42v-12.4c0-1.5,0.86-2.78,2.35-3.42c1.28-0.64,3.21-1.07,5.56-1.07s4.06,0.21,5.34,0.86
		c1.5,0.64,2.35,1.71,2.35,3.42v4.92h-6.63v-5.13c0-0.43-0.21-0.64-0.21-0.86c0-0.21-0.43-0.21-0.86-0.21c-0.43,0-0.64,0-0.86,0.21
		c-0.21,0.21-0.43,0.43-0.43,0.86v12.82c0,0.43,0.21,0.64,0.21,0.86c0,0.21,0.43,0.21,0.86,0.21c0.43,0,0.64,0,0.86-0.21
		c0.21-0.21,0.21-0.43,0.21-0.86v-4.92h6.84L131.48,55.44L131.48,55.44z"/>
</g>
<path class="st1" d="M107.84,56.91c0,0.22,0.11,0.33,0.11,0.44c0,0.11,0.22,0.11,0.44,0.11c0.22,0,0.33,0,0.44-0.11
	c0.22-0.11,0.22-0.22,0.22-0.44v-2.43h-1.21V56.91z"/>
<path class="st1" d="M105.42,49.5c-0.44-0.3-0.99-0.4-1.76-0.4c-0.55,0-0.88,0-1.32,0.1c-0.44,0.1-0.66,0.2-0.88,0.3v-0.4h-3.53V59
	h3.53v-7.98c0-0.1,0-0.2,0.11-0.3c0.11-0.1,0.22-0.1,0.44-0.1c0.33,0,0.55,0.2,0.55,0.51v2.12h3.53c0,0,0-2.73,0.11-2.73
	C106.2,50.11,105.87,49.81,105.42,49.5z"/>
<rect x="93.1" y="53" class="st1" width="3.53" height="6"/>
<path class="st1" d="M96.81,49.03h-3.64v2.52h3.64v-2.03c0-0.01,0-0.03,0.02-0.04v-0.35c-0.01,0-0.01,0-0.02,0V49.03z"/>
<path class="st1" d="M135.55,50.71c-0.2,0-0.3,0-0.4,0.1c-0.1,0.1-0.2,0.2-0.2,0.4v2.2h1.1v-2.2c0-0.2-0.1-0.3-0.1-0.4
	C135.95,50.71,135.75,50.71,135.55,50.71z"/>
<path class="st1" d="M138.77,49.5c-0.6-0.3-1.5-0.4-2.6-0.4s-2,0.2-2.6,0.5c-0.7,0.3-1.1,0.9-1.1,1.6V57c0,0.7,0.4,1.3,1.1,1.6
	c0.6,0.3,1.5,0.4,2.6,0.4s2-0.1,2.6-0.4c0.7-0.4,1.1-0.9,1.1-1.6v-1.9h-3.2v2c0,0.2,0,0.3-0.1,0.4c-0.1,0.1-0.2,0.1-0.4,0.1
	s-0.4,0-0.4-0.1c0-0.1-0.1-0.2-0.1-0.4v-2.3h4.2v-3.7C139.87,50.3,139.57,49.8,138.77,49.5z M136.77,53.2h-1.1V51
	c0-0.2,0.1-0.3,0.2-0.4c0.1-0.1,0.2-0.1,0.4-0.1s0.4,0,0.4,0.1c0,0.1,0.1,0.2,0.1,0.4V53.2z"/>
<rect x="140.86" y="46.95" class="st1" width="3.15" height="12.05"/>
<rect x="144.86" y="46.95" class="st1" width="3.15" height="12.05"/>
<path class="st1" d="M186.5,53"/>
<path class="st1" d="M186.5,54"/>
<path class="st1" d="M66.07,35.23c0-5.76-4.67-10.43-10.43-10.43H34.26v27.53c-10.9-0.69-19.56-9.77-19.56-20.85
	s9.38-20.9,20.9-20.9c7.71,0,14.45,4.2,18.07,10.42h2.8c2.24,0,4.35,0.52,6.24,1.44C58.91,11.11,48.19,2.91,35.6,2.91
	c-15.76,0-28.57,12.82-28.57,28.57s12.1,27.84,27.23,28.53v0.03H45.2V45.66h10.43c5.76,0,10.43-4.67,10.43-10.43L66.07,35.23z
	 M52.42,38.83H45.2v-7.2h7.22c1.99,0,3.6,1.61,3.6,3.6S54.41,38.83,52.42,38.83z"/>
<polygon class="st1" points="49.36,48.55 55.18,60.19 67.49,60.19 61.09,48.73 "/>
<path class="st1" d="M73.86,49.5c-0.6-0.3-1.5-0.4-2.6-0.4s-2,0.2-2.6,0.5c-0.7,0.3-1.1,0.9-1.1,1.6V57c0,0.7,0.4,1.3,1.1,1.6
	c0.6,0.3,1.5,0.4,2.6,0.4s2-0.1,2.6-0.4c0.7-0.4,1.1-0.9,1.1-1.6v-1.9h-3.2v2c0,0.2,0,0.3-0.1,0.4c-0.1,0.1-0.2,0.1-0.4,0.1
	s-0.4,0-0.4-0.1c0-0.1-0.1-0.2-0.1-0.4v-2.3h4.2v-3.7C74.96,50.3,74.66,49.8,73.86,49.5z M71.86,53.2h-1.1V51c0-0.2,0.1-0.3,0.2-0.4
	c0.1-0.1,0.2-0.1,0.4-0.1s0.4,0,0.4,0.1c0,0.1,0.1,0.2,0.1,0.4V53.2z"/>
<path class="st1" d="M80.24,52.77l2.9-0.06l0-0.11l-0.02-0.85l-0.02-0.66c-0.02-0.72-0.43-1.23-1.14-1.63
	c-0.61-0.3-1.51-0.38-2.61-0.36c-1.1,0.02-2,0.15-2.59,0.47c-0.69,0.33-1.08,0.96-1.06,1.68l0.08,3.52l4.2-0.09l0.06,2.33
	c0,0.21-0.09,0.31-0.09,0.42c0,0.1-0.2,0.11-0.4,0.11c-0.2,0-0.3,0.01-0.4-0.09c-0.1-0.1-0.1-0.2-0.11-0.41L79,55.17l-3.2,0.07
	l0.04,1.77c0.02,0.72,0.43,1.23,1.14,1.63c0.61,0.3,1.51,0.38,2.61,0.36c1.1-0.02,2-0.15,2.59-0.47c0.69-0.33,1.08-0.96,1.06-1.68
	l-0.08-3.47l0-0.05l-4.2,0.09l-0.06-2.33c0-0.21,0.09-0.31,0.09-0.42c0-0.1,0.2-0.11,0.4-0.11c0.2,0,0.3-0.01,0.4,0.09
	c0.1,0.1,0.1,0.2,0.11,0.41l0.04,1.72L80.24,52.77z"/>
<path class="st1" d="M112.86,49.36c-0.6-0.3-1.5-0.4-2.6-0.4s-2,0.2-2.6,0.5c-0.7,0.3-1.1,0.9-1.1,1.6v5.8c0,0.7,0.4,1.3,1.1,1.6
	c0.6,0.3,1.5,0.4,2.6,0.4s2-0.1,2.6-0.4c0.7-0.4,1.1-0.9,1.1-1.6v-1.9h-3.2v2c0,0.2,0,0.3-0.1,0.4c-0.1,0.1-0.2,0.1-0.4,0.1
	s-0.4,0-0.4-0.1c0-0.1-0.1-0.2-0.1-0.4v-2.3h4.2v-3.7C113.96,50.16,113.66,49.66,112.86,49.36z M110.86,53.06h-1.1v-2.2
	c0-0.2,0.1-0.3,0.2-0.4c0.1-0.1,0.2-0.1,0.4-0.1s0.4,0,0.4,0.1c0,0.1,0.1,0.2,0.1,0.4V53.06z"/>
<g>
	<polyline class="st1" points="87.31,49.5 87.3,49.1 83.78,49.17 84.02,59 87.55,58.93 87.35,51.01 	"/>
	<path class="st1" d="M89.65,54.78c1.44-0.03,2.57-1.22,2.54-2.66l-0.03-1.1c-0.02-0.8-0.33-1.29-1.14-1.57
		c-0.61-0.29-1.51-0.37-2.61-0.34c-1.1,0.03-1.04,0.58-2.03,0.71c-0.82,0.11-1.24,0.35-1.44,0.66c-0.13,0.2-0.16,0.45-0.16,0.45
		c-0.02,0.1-0.02,0.2-0.02,0.36c0,0.17,0.01,0.3,0.01,0.31c0.02,0.85,0.07,3.15,0.07,3.21 M89.11,53.19l-1.1,0.03l-0.05-2.2
		c0-0.2,0.09-0.3,0.19-0.4c0.1-0.1,0.2-0.1,0.4-0.11s0.4-0.01,0.4,0.09c0,0.1,0.1,0.2,0.11,0.4L89.11,53.19z"/>
</g>
<path class="st1" d="M109.5,63"/>
<path class="st1" d="M93.24,45.02"/>
<path class="st2" d="M92.84,32.33"/>
<path class="st1" d="M95.5,29"/>
<path class="st1" d="M92.5,29"/>
</svg>
